<?xml version="1.0" encoding="UTF-8"?>
<svg xmlns="http://www.w3.org/2000/svg" xmlns:xlink="http://www.w3.org/1999/xlink" width="px" height="px" viewBox="0 0 20 20" version="1.1">
<g id="surface1">
<path style="fill:none;stroke-width:14;stroke-linecap:round;stroke-linejoin:miter;stroke:rgb(90.196078%,90.196078%,90.196078%);stroke-opacity:1;stroke-miterlimit:4;" d="M 192.633328 85.159371 L 192.633328 22.446281 " transform="matrix(0.0515119,0,0,0.0515119,0.0927214,0)"/>
<path style="fill-rule:nonzero;fill:rgb(0%,0%,0%);fill-opacity:1;stroke-width:14;stroke-linecap:round;stroke-linejoin:miter;stroke:rgb(90.196078%,90.196078%,90.196078%);stroke-opacity:1;stroke-miterlimit:4;" d="M 193.391648 132.478559 L 190.358367 132.478559 L 177.163594 127.32198 L 177.163594 70.902949 L 154.565648 70.751285 L 147.209941 63.243914 L 147.209941 48.15334 L 155.703129 39.58432 L 177.163594 39.508488 L 177.163594 21.157137 L 187.400918 6.976547 L 197.334914 6.976547 L 208.558055 21.157137 L 208.558055 39.660152 L 229.942687 40.115145 L 238.587539 47.925844 L 238.587539 64.153898 L 228.046887 70.902949 L 208.558055 71.509605 L 208.558055 127.32198 L 196.349098 132.478559 Z M 193.391648 132.478559 " transform="matrix(0.0515119,0,0,0.0515119,0.0927214,0)"/>
<path style="fill-rule:nonzero;fill:rgb(0%,0%,0%);fill-opacity:1;stroke-width:14;stroke-linecap:round;stroke-linejoin:miter;stroke:rgb(90.196078%,90.196078%,90.196078%);stroke-opacity:1;stroke-miterlimit:4;" d="M 192.633328 241.070027 C 192.633328 241.070027 242.758301 157.503129 226.075254 124.137035 C 226.075254 124.137035 214.927945 96.30668 192.633328 96.30668 C 170.414543 96.30668 159.267234 124.137035 159.267234 124.137035 C 142.584187 157.503129 192.633328 241.070027 192.633328 241.070027 " transform="matrix(0.0515119,0,0,0.0515119,0.0927214,0)"/>
<path style="fill-rule:nonzero;fill:rgb(0%,0%,0%);fill-opacity:1;stroke-width:14;stroke-linecap:round;stroke-linejoin:round;stroke:rgb(90.196078%,90.196078%,90.196078%);stroke-opacity:1;stroke-miterlimit:4;" d="M 70.164598 352.012289 C 131.436879 390.989953 242.758301 390.989953 304.030582 352.012289 L 304.030582 273.981129 C 304.030582 273.981129 404.280527 224.00782 370.838602 157.123969 C 326.325199 84.780211 220.539516 118.146305 192.633328 201.713203 C 153.655664 118.146305 47.86998 84.780211 14.503887 157.123969 C -18.938039 224.00782 70.164598 268.521223 70.164598 268.521223 Z M 70.164598 352.012289 " transform="matrix(0.0515119,0,0,0.0515119,0.0927214,0)"/>
<path style="fill-rule:nonzero;fill:rgb(0%,0%,0%);fill-opacity:1;stroke-width:14;stroke-linecap:round;stroke-linejoin:round;stroke:rgb(90.196078%,90.196078%,90.196078%);stroke-opacity:1;stroke-miterlimit:4;" d="M 70.164598 274.056961 C 131.436879 240.690867 242.758301 240.690867 304.030582 274.056961 " transform="matrix(0.0515119,0,0,0.0515119,0.0927214,0)"/>
<path style="fill-rule:nonzero;fill:rgb(0%,0%,0%);fill-opacity:1;stroke-width:14;stroke-linecap:round;stroke-linejoin:round;stroke:rgb(90.196078%,90.196078%,90.196078%);stroke-opacity:1;stroke-miterlimit:4;" d="M 70.164598 313.034625 C 131.436879 279.592699 242.758301 279.592699 304.030582 313.034625 " transform="matrix(0.0515119,0,0,0.0515119,0.0927214,0)"/>
<path style="fill-rule:nonzero;fill:rgb(0%,0%,0%);fill-opacity:1;stroke-width:14;stroke-linecap:round;stroke-linejoin:round;stroke:rgb(90.196078%,90.196078%,90.196078%);stroke-opacity:1;stroke-miterlimit:4;" d="M 70.164598 352.012289 C 131.436879 318.570363 242.758301 318.570363 304.030582 352.012289 " transform="matrix(0.0515119,0,0,0.0515119,0.0927214,0)"/>
</g>
</svg>
