<?xml version="1.0" encoding="UTF-8"?>
<svg xmlns="http://www.w3.org/2000/svg" xmlns:xlink="http://www.w3.org/1999/xlink" width="px" height="px" viewBox="0 0 20 20" version="1.1">
<g id="surface1">
<path style="fill-rule:nonzero;fill:rgb(0%,0%,0%);fill-opacity:1;stroke-width:14;stroke-linecap:round;stroke-linejoin:round;stroke:rgb(90.196078%,90.196078%,90.196078%);stroke-opacity:1;stroke-miterlimit:4;" d="M 49.35391 201.782275 C 138.444428 186.126201 269.433582 186.126201 332.35609 201.782275 L 353.305408 76.086365 L 279.945518 191.344893 L 279.945518 44.625111 L 222.316254 186.126201 L 190.855 28.894484 L 159.393746 186.126201 L 101.764482 39.40642 L 101.764482 191.344893 L 28.404592 76.086365 Z M 49.35391 201.782275 " transform="matrix(0.0523958,0,0,0.0523958,0,0.8923)"/>
<path style="fill-rule:nonzero;fill:rgb(0%,0%,0%);fill-opacity:1;stroke-width:14;stroke-linecap:round;stroke-linejoin:round;stroke:rgb(90.196078%,90.196078%,90.196078%);stroke-opacity:1;stroke-miterlimit:4;" d="M 49.35391 201.782275 C 49.35391 222.806146 65.084537 222.806146 75.596473 243.755465 C 86.033855 259.486092 86.033855 254.192848 80.815164 280.43541 C 65.084537 290.872793 70.377781 332.77143 70.377781 332.77143 C 138.444428 343.283365 243.265572 343.283365 311.332219 332.77143 C 311.332219 332.77143 316.625463 290.872793 300.894836 280.43541 C 295.601592 254.192848 295.601592 259.411539 306.113527 243.755465 C 316.625463 222.731594 332.281537 222.731594 332.281537 201.782275 C 243.265572 186.126201 138.444428 186.126201 49.35391 201.782275 Z M 49.35391 201.782275 " transform="matrix(0.0523958,0,0,0.0523958,0,0.8923)"/>
<path style="fill-rule:nonzero;fill:rgb(0%,0%,0%);fill-opacity:1;stroke-width:14;stroke-linecap:round;stroke-linejoin:round;stroke:rgb(90.196078%,90.196078%,90.196078%);stroke-opacity:1;stroke-miterlimit:4;" d="M 75.596473 243.755465 C 112.276418 233.243529 269.433582 233.243529 306.113527 243.755465 " transform="matrix(0.0523958,0,0,0.0523958,0,0.8923)"/>
<path style="fill-rule:nonzero;fill:rgb(0%,0%,0%);fill-opacity:1;stroke-width:14;stroke-linecap:round;stroke-linejoin:round;stroke:rgb(90.196078%,90.196078%,90.196078%);stroke-opacity:1;stroke-miterlimit:4;" d="M 80.815164 280.43541 C 143.663119 269.923475 238.046881 269.923475 300.894836 280.43541 " transform="matrix(0.0523958,0,0,0.0523958,0,0.8923)"/>
<path style="fill-rule:nonzero;fill:rgb(0%,0%,0%);fill-opacity:1;stroke-width:14;stroke-linecap:round;stroke-linejoin:round;stroke:rgb(90.196078%,90.196078%,90.196078%);stroke-opacity:1;stroke-miterlimit:4;" d="M 48.906594 75.11718 C 48.906594 86.672854 39.512949 96.141051 27.957275 96.141051 C 16.327049 96.141051 6.933404 86.672854 6.933404 75.11718 C 6.933404 63.486953 16.327049 54.093309 27.957275 54.093309 C 39.512949 54.093309 48.906594 63.486953 48.906594 75.11718 Z M 48.906594 75.11718 " transform="matrix(0.0523958,0,0,0.0523958,0,0.8923)"/>
<path style="fill-rule:nonzero;fill:rgb(0%,0%,0%);fill-opacity:1;stroke-width:14;stroke-linecap:round;stroke-linejoin:round;stroke:rgb(90.196078%,90.196078%,90.196078%);stroke-opacity:1;stroke-miterlimit:4;" d="M 211.804318 27.999852 C 211.804318 39.630078 202.410674 49.023723 190.780447 49.023723 C 179.224773 49.023723 169.831129 39.630078 169.831129 27.999852 C 169.831129 16.369625 179.224773 6.97598 190.780447 6.97598 C 202.410674 6.97598 211.804318 16.369625 211.804318 27.999852 Z M 211.804318 27.999852 " transform="matrix(0.0523958,0,0,0.0523958,0,0.8923)"/>
<path style="fill-rule:nonzero;fill:rgb(0%,0%,0%);fill-opacity:1;stroke-width:14;stroke-linecap:round;stroke-linejoin:round;stroke:rgb(90.196078%,90.196078%,90.196078%);stroke-opacity:1;stroke-miterlimit:4;" d="M 374.702043 75.11718 C 374.702043 86.672854 365.308398 96.141051 353.678172 96.141051 C 342.122498 96.141051 332.728854 86.672854 332.728854 75.11718 C 332.728854 63.486953 342.122498 54.093309 353.678172 54.093309 C 365.308398 54.093309 374.702043 63.486953 374.702043 75.11718 Z M 374.702043 75.11718 " transform="matrix(0.0523958,0,0,0.0523958,0,0.8923)"/>
<path style="fill-rule:nonzero;fill:rgb(0%,0%,0%);fill-opacity:1;stroke-width:14;stroke-linecap:round;stroke-linejoin:round;stroke:rgb(90.196078%,90.196078%,90.196078%);stroke-opacity:1;stroke-miterlimit:4;" d="M 122.713801 38.437234 C 122.713801 50.067461 113.320156 59.461105 101.764482 59.461105 C 90.134256 59.461105 80.740611 50.067461 80.740611 38.437234 C 80.740611 26.807008 90.134256 17.413363 101.764482 17.413363 C 113.320156 17.413363 122.713801 26.807008 122.713801 38.437234 Z M 122.713801 38.437234 " transform="matrix(0.0523958,0,0,0.0523958,0,0.8923)"/>
<path style="fill-rule:nonzero;fill:rgb(0%,0%,0%);fill-opacity:1;stroke-width:14;stroke-linecap:round;stroke-linejoin:round;stroke:rgb(90.196078%,90.196078%,90.196078%);stroke-opacity:1;stroke-miterlimit:4;" d="M 300.894836 43.655926 C 300.894836 55.286152 291.501191 64.679797 279.870965 64.679797 C 268.315291 64.679797 258.847094 55.286152 258.847094 43.655926 C 258.847094 32.100252 268.315291 22.706607 279.870965 22.706607 C 291.501191 22.706607 300.894836 32.100252 300.894836 43.655926 Z M 300.894836 43.655926 " transform="matrix(0.0523958,0,0,0.0523958,0,0.8923)"/>
</g>
</svg>
