<?xml version="1.0" encoding="UTF-8"?>
<svg xmlns="http://www.w3.org/2000/svg" xmlns:xlink="http://www.w3.org/1999/xlink" width="px" height="px" viewBox="0 0 20 20" version="1.1">
<g id="surface1">
<path style="fill-rule:nonzero;fill:rgb(0%,0%,0%);fill-opacity:1;stroke-width:8;stroke-linecap:round;stroke-linejoin:round;stroke:rgb(90.196078%,90.196078%,90.196078%);stroke-opacity:1;stroke-miterlimit:4;" d="M 6.983707 321.379311 L 289.946293 321.379311 L 289.946293 289.953275 L 6.983707 289.953275 Z M 6.983707 321.379311 " transform="matrix(0.0609069,0,0,0.0609069,0.957457,0)"/>
<path style="fill-rule:nonzero;fill:rgb(0%,0%,0%);fill-opacity:1;stroke-width:8;stroke-linecap:round;stroke-linejoin:round;stroke:rgb(90.196078%,90.196078%,90.196078%);stroke-opacity:1;stroke-miterlimit:4;" d="M 38.409742 289.953275 L 38.409742 248.009139 L 258.520258 248.009139 L 258.520258 289.889141 Z M 38.409742 289.953275 " transform="matrix(0.0609069,0,0,0.0609069,0.957457,0)"/>
<path style="fill-rule:nonzero;fill:rgb(0%,0%,0%);fill-opacity:1;stroke-width:8;stroke-linecap:round;stroke-linejoin:round;stroke:rgb(90.196078%,90.196078%,90.196078%);stroke-opacity:1;stroke-miterlimit:4;" d="M 28.01991 59.388793 L 28.01991 6.990689 L 69.899912 6.990689 L 69.899912 28.026893 L 122.233881 28.026893 L 122.233881 6.990689 L 174.631984 6.990689 L 174.631984 28.026893 L 227.030088 28.026893 L 227.030088 6.990689 L 268.974225 6.990689 L 268.974225 59.388793 " transform="matrix(0.0609069,0,0,0.0609069,0.957457,0)"/>
<path style="fill-rule:nonzero;fill:rgb(0%,0%,0%);fill-opacity:1;stroke-width:8;stroke-linecap:round;stroke-linejoin:round;stroke:rgb(90.196078%,90.196078%,90.196078%);stroke-opacity:1;stroke-miterlimit:4;" d="M 237.548189 221.842154 L 253.261207 248.009139 L 43.668793 248.009139 L 59.381811 221.77802 " transform="matrix(0.0609069,0,0,0.0609069,0.957457,0)"/>
<path style="fill-rule:nonzero;fill:rgb(0%,0%,0%);fill-opacity:1;stroke-width:;stroke-linecap:round;stroke-linejoin:miter;stroke:rgb(90.196078%,90.196078%,90.196078%);stroke-opacity:1;stroke-miterlimit:4;" d="M 237.548189 90.814828 L 237.548189 217.48099 L 59.381811 217.48099 L 59.381811 90.814828 " transform="matrix(0.0609069,0,0,0.0609069,0.957457,0)"/>
<path style="fill-rule:nonzero;fill:rgb(0%,0%,0%);fill-opacity:1;stroke-width:8;stroke-linecap:round;stroke-linejoin:round;stroke:rgb(90.196078%,90.196078%,90.196078%);stroke-opacity:1;stroke-miterlimit:4;" d="M 268.974225 59.388793 L 237.548189 90.814828 L 59.381811 90.814828 L 28.01991 59.388793 " transform="matrix(0.0609069,0,0,0.0609069,0.957457,0)"/>
<path style="fill:none;stroke-width:8;stroke-linecap:round;stroke-linejoin:miter;stroke:rgb(90.196078%,90.196078%,90.196078%);stroke-opacity:1;stroke-miterlimit:4;" d="M 28.01991 59.388793 L 268.974225 59.388793 " transform="matrix(0.0609069,0,0,0.0609069,0.957457,0)"/>
</g>
</svg>
