<?xml version="1.0" encoding="UTF-8"?>
<svg xmlns="http://www.w3.org/2000/svg" xmlns:xlink="http://www.w3.org/1999/xlink" width="px" height="px" viewBox="0 0 20 20" version="1.1">
<g id="surface1">
<path style="fill-rule:nonzero;fill:rgb(90.196078%,90.196078%,90.196078%);fill-opacity:1;stroke-width:14;stroke-linecap:butt;stroke-linejoin:round;stroke:rgb(0%,0%,0%);stroke-opacity:1;stroke-miterlimit:4;" d="M 38.419756 326.58624 C 73.950637 316.444691 144.374119 331.125115 179.905 305.593943 C 215.435881 331.054195 285.859363 316.373771 321.390244 326.58624 C 333.304791 331.125115 344.084619 338.288027 352.80777 347.578537 C 345.715777 357.791006 335.503309 358.003766 321.390244 352.826611 C 285.859363 342.685063 215.435881 357.649166 179.905 342.401383 C 144.374119 357.649166 73.950637 342.685063 38.419756 352.826611 C 24.235771 358.003766 14.094223 357.791006 7.00223 347.578537 C 21.186215 327.22452 38.419756 326.58624 38.419756 326.58624 Z M 38.419756 326.58624 " transform="matrix(0.0550797,0,0,0.0550797,0.0908816,0)"/>
<path style="fill-rule:nonzero;fill:rgb(90.196078%,90.196078%,90.196078%);fill-opacity:1;stroke-width:14;stroke-linecap:butt;stroke-linejoin:round;stroke:rgb(0%,0%,0%);stroke-opacity:1;stroke-miterlimit:4;" d="M 101.325727 284.672566 C 127.495178 310.912937 232.314822 310.912937 258.484273 284.672566 C 263.235908 270.346742 258.697033 251.127443 250.186643 238.929217 C 245.505928 232.049984 239.406814 226.234551 232.314822 221.837516 C 289.901799 206.093293 295.149873 101.344568 179.905 59.430895 C 64.660127 101.344568 69.908201 206.093293 127.495178 221.837516 C 126.715059 221.624756 123.665502 224.461553 123.098143 224.887072 C 119.481227 227.723869 116.14799 230.915266 113.098434 234.390342 C 102.176766 247.226848 95.935812 268.502824 101.325727 284.672566 Z M 101.325727 284.672566 " transform="matrix(0.0550797,0,0,0.0550797,0.0908816,0)"/>
<path style="fill-rule:nonzero;fill:rgb(90.196078%,90.196078%,90.196078%);fill-opacity:1;stroke-width:14;stroke-linecap:butt;stroke-linejoin:round;stroke:rgb(0%,0%,0%);stroke-opacity:1;stroke-miterlimit:4;" d="M 206.074451 33.190523 C 206.074451 47.658187 194.372664 59.430895 179.905 59.430895 C 165.437336 59.430895 153.664629 47.658187 153.664629 33.190523 C 153.664629 18.722859 165.437336 7.021072 179.905 7.021072 C 194.372664 7.021072 206.074451 18.722859 206.074451 33.190523 Z M 206.074451 33.190523 " transform="matrix(0.0550797,0,0,0.0550797,0.0908816,0)"/>
<path style="fill-rule:nonzero;fill:rgb(90.196078%,90.196078%,90.196078%);fill-opacity:1;stroke-width:14;stroke-linecap:round;stroke-linejoin:miter;stroke:rgb(0%,0%,0%);stroke-opacity:1;stroke-miterlimit:4;" d="M 127.495178 221.837516 L 232.314822 221.837516 M 101.325727 263.751189 L 258.484273 263.751189 M 179.905 111.769797 L 179.905 164.179619 M 153.735549 138.010168 L 206.074451 138.010168 " transform="matrix(0.0550797,0,0,0.0550797,0.0908816,0)"/>
</g>
</svg>
