<?xml version="1.0" encoding="UTF-8"?>
<svg xmlns="http://www.w3.org/2000/svg" xmlns:xlink="http://www.w3.org/1999/xlink" width="px" height="px" viewBox="0 0 20 20" version="1.1">
<g id="surface1">
<path style="fill-rule:nonzero;fill:rgb(90.196078%,90.196078%,90.196078%);fill-opacity:1;stroke-width:14;stroke-linecap:round;stroke-linejoin:round;stroke:rgb(0%,0%,0%);stroke-opacity:1;stroke-miterlimit:4;" d="M 148.874033 40.04833 C 164.120859 41.539131 164.459678 40.183857 177.876885 44.249678 C 261.02291 69.728818 306.96668 150.435352 302.494277 339.970342 L 61.52666 339.970342 C 61.52666 245.643311 186.27958 271.867852 165.340605 119.873936 " transform="matrix(0.0576452,0,0,0.0576452,1.070471,0)"/>
<path style="fill-rule:nonzero;fill:rgb(90.196078%,90.196078%,90.196078%);fill-opacity:1;stroke-width:13.25;stroke-linecap:round;stroke-linejoin:round;stroke:rgb(0%,0%,0%);stroke-opacity:1;stroke-miterlimit:4;" d="M 102.659209 51.364863 C 105.369756 38.693057 110.452031 23.44623 117.702744 12.73957 C 119.193545 10.503369 121.023164 8.131641 123.462656 7.657295 C 125.969912 7.115186 128.002822 8.470459 129.900205 10.029023 C 139.116064 17.3475 145.553613 28.59627 147.51876 41.132549 " transform="matrix(0.0576452,0,0,0.0576452,1.070471,0)"/>
<path style="fill-rule:nonzero;fill:rgb(90.196078%,90.196078%,90.196078%);fill-opacity:1;stroke-width:14;stroke-linecap:round;stroke-linejoin:round;stroke:rgb(0%,0%,0%);stroke-opacity:1;stroke-miterlimit:4;" d="M 174.82752 157.347246 C 163.104404 170.425635 149.55167 181.877695 135.253535 192.177773 C 117.838271 204.714053 100.626299 215.624004 86.395928 232.226104 C 81.923525 237.308379 76.976777 241.916309 71.623447 245.914365 C 67.896445 248.692676 59.358223 250.522295 54.818057 248.082803 C 51.158818 246.18542 45.805488 241.509727 42.756123 239.070234 C 39.638994 236.630742 36.657393 237.986016 32.930391 238.121543 C 25.205332 238.25707 25.137568 237.376143 19.038838 232.022813 C 0.0650098 215.285186 6.028213 183.842842 19.513184 167.240742 C 27.915879 156.940664 41.875195 133.833252 56.241094 111.742295 C 59.561514 106.66002 60.645732 100.561289 61.865479 94.733613 C 63.152988 88.567119 66.066826 84.433535 70.268174 79.757842 C 83.820908 64.917598 127.257422 41.810186 136.337754 38.286475 C 138.912773 37.27002 140.539102 36.998965 141.758848 34.559473 C 143.249648 31.713398 144.875977 29.070615 146.773359 26.563359 C 152.465508 18.499482 159.783984 11.384297 168.525498 6.911895 C 179.028867 7.521768 178.825576 44.995078 178.825576 44.995078 " transform="matrix(0.0576452,0,0,0.0576452,1.070471,0)"/>
<path style="fill-rule:nonzero;fill:rgb(90.196078%,90.196078%,90.196078%);fill-opacity:1;stroke-width:14;stroke-linecap:round;stroke-linejoin:round;stroke:rgb(0%,0%,0%);stroke-opacity:1;stroke-miterlimit:4;" d="M 39.910049 236.630742 C 46.889707 229.041211 52.649619 220.435225 57.054258 211.083838 " transform="matrix(0.0576452,0,0,0.0576452,1.070471,0)"/>
<path style="fill-rule:nonzero;fill:rgb(0%,0%,0%);fill-opacity:1;stroke-width:5;stroke-linecap:round;stroke-linejoin:round;stroke:rgb(0%,0%,0%);stroke-opacity:1;stroke-miterlimit:4;" d="M 37.199502 204.307471 C 36.996211 207.221309 34.556719 209.389746 31.642881 209.254219 C 28.729043 209.050928 26.560605 206.611436 26.696133 203.697598 C 26.899424 200.78376 29.338916 198.615322 32.252754 198.75085 C 35.098828 198.954141 37.335029 201.393633 37.199502 204.307471 Z M 37.199502 204.307471 " transform="matrix(0.0576452,0,0,0.0576452,1.070471,0)"/>
<path style="fill-rule:nonzero;fill:rgb(0%,0%,0%);fill-opacity:1;stroke-width:8;stroke-linecap:round;stroke-linejoin:round;stroke:rgb(0%,0%,0%);stroke-opacity:1;stroke-miterlimit:4;" d="M 102.8625 99.002725 C 97.441406 105.779092 91.274912 109.844912 88.970947 108.083057 C 86.734746 106.253438 89.242002 99.273779 94.663096 92.497412 C 100.016426 85.721045 106.250684 81.655225 108.486885 83.41708 C 110.79085 85.246699 108.283594 92.158594 102.8625 99.002725 Z M 102.8625 99.002725 " transform="matrix(0.0576452,0,0,0.0576452,1.070471,0)"/>
<path style="fill-rule:nonzero;fill:rgb(90.196078%,90.196078%,90.196078%);fill-opacity:1;stroke-width:14;stroke-linecap:round;stroke-linejoin:miter;stroke:rgb(0%,0%,0%);stroke-opacity:1;stroke-miterlimit:4;" d="M 181.400596 82.12957 C 181.400596 82.12957 177.673594 80.164424 184.517725 83.620371 C 210.877793 97.037578 274.372354 139.864219 266.444004 315.846475 " transform="matrix(0.0576452,0,0,0.0576452,1.070471,0)"/>
</g>
</svg>
