<?xml version="1.0" encoding="UTF-8"?>
<svg xmlns="http://www.w3.org/2000/svg" xmlns:xlink="http://www.w3.org/1999/xlink" width="px" height="px" viewBox="0 0 20 20" version="1.1">
<g id="surface1">
<path style="fill-rule:nonzero;fill:rgb(90.196078%,90.196078%,90.196078%);fill-opacity:1;stroke-width:14;stroke-linecap:round;stroke-linejoin:miter;stroke:rgb(0%,0%,0%);stroke-opacity:1;stroke-miterlimit:4;" d="M 118.865 7.02133 C 97.344338 7.02133 79.990807 23.34735 79.990807 43.497996 C 80.047891 51.375586 82.673754 59.02484 87.582977 65.18991 C 68.57401 75.407943 55.673029 94.473994 55.673029 116.451328 C 55.673029 135.003623 64.806467 151.443811 79.134547 162.346852 C 49.907547 171.994045 6.980391 212.980346 6.980391 285.24867 L 230.749609 285.24867 C 230.749609 213.03743 187.822453 172.051129 158.652537 162.346852 C 172.923533 151.500895 182.114055 135.003623 182.114055 116.508412 C 182.114055 94.473994 169.15599 75.407943 150.204107 65.18991 C 155.056246 59.02484 157.739193 51.375586 157.796277 43.497996 C 157.796277 23.34735 140.385662 7.02133 118.865 7.02133 Z M 118.865 7.02133 " transform="matrix(0.0684299,0,0,0.0684299,1.866083,0)"/>
</g>
</svg>
